<?xml version="1.0" standalone="no"?>
<!DOCTYPE svg PUBLIC "-//W3C//DTD SVG 20010904//EN"
 "http://www.w3.org/TR/2001/REC-SVG-20010904/DTD/svg10.dtd">
<svg version="1.0" xmlns="http://www.w3.org/2000/svg"
 width="300.000000pt" height="146.000000pt" viewBox="0 0 300.000000 146.000000"
 preserveAspectRatio="xMidYMid meet">
<metadata>
Created by potrace 1.10, written by Peter Selinger 2001-2011
</metadata>
<g transform="translate(0.000000,146.000000) scale(0.100000,-0.100000)"
fill="#005494" stroke="none">
<path d="M156 1445 c-52 -18 -112 -79 -133 -134 -16 -42 -18 -94 -18 -581 0
-492 1 -539 18 -582 22 -58 91 -123 145 -138 28 -7 439 -9 1354 -8 1201 3
1316 4 1343 20 46 25 86 68 109 118 20 44 21 60 24 569 3 606 3 602 -76 682
-29 29 -62 51 -87 58 -28 8 -419 11 -1340 11 -1081 -1 -1307 -3 -1339 -15z
m284 -234 l0 -59 -39 5 c-32 4 -41 2 -55 -18 -9 -14 -16 -43 -16 -71 l0 -48
50 0 50 0 0 -55 0 -55 -50 0 -50 0 0 -160 0 -160 -70 0 -70 0 0 160 0 160 -40
0 -40 0 0 55 0 55 39 0 38 0 6 74 c10 135 51 176 173 176 l74 0 0 -59z m180
-286 l0 -335 -70 0 -70 0 0 335 0 335 70 0 70 0 0 -335z m2190 0 l0 -335 -65
0 -65 0 0 335 0 335 65 0 65 0 0 -335z m-1793 94 c72 -27 122 -109 123 -201
l0 -58 -150 0 c-162 0 -173 -4 -126 -49 37 -35 84 -37 129 -7 l38 26 45 -30
c24 -17 44 -35 44 -39 0 -11 -68 -57 -103 -70 -92 -35 -226 7 -282 87 -39 57
-47 156 -17 224 21 49 72 96 124 115 42 15 138 16 175 2z m981 -9 c23 -10 42
-25 42 -33 0 -7 -16 -28 -35 -47 -35 -34 -35 -34 -64 -17 -36 21 -74 22 -91 2
-22 -26 -3 -42 72 -60 99 -25 138 -62 138 -133 0 -91 -69 -141 -195 -142 -54
0 -82 6 -124 25 -59 28 -59 25 3 92 l30 33 24 -23 c27 -25 102 -31 124 -9 18
19 -18 47 -72 56 -61 10 -117 42 -136 78 -19 37 -14 96 11 134 40 61 184 84
273 44z m467 1 c76 -34 122 -98 132 -179 8 -68 -12 -127 -58 -177 -109 -118
-329 -93 -399 45 -58 116 -13 252 102 309 56 28 165 29 223 2z m-1072 -48 l35
-57 36 57 37 57 75 0 c58 0 73 -3 68 -12 -5 -7 -34 -50 -66 -95 -32 -45 -58
-86 -58 -92 0 -6 36 -60 80 -121 l80 -110 -80 0 -80 0 -46 70 c-26 39 -48 70
-49 70 -1 0 -23 -31 -49 -70 l-48 -70 -80 0 c-61 0 -77 3 -72 13 4 6 41 56 81
109 40 53 73 102 73 108 0 7 -26 49 -58 93 -32 45 -62 88 -66 95 -5 9 12 12
73 12 l79 0 35 -57z m1417 -463 c0 -20 -7 -20 -1310 -20 -1303 0 -1310 0
-1310 20 0 20 7 20 1310 20 1303 0 1310 0 1310 -20z m-1526 -110 c15 -15 -9
-34 -46 -34 -44 -1 -46 -22 -3 -36 100 -33 63 -145 -42 -125 -61 11 -51 50 12
50 46 0 46 16 0 40 -21 11 -43 28 -49 37 -13 22 7 66 36 78 26 11 77 5 92 -10z
m191 6 c36 -15 65 -59 65 -98 0 -13 -9 -37 -20 -55 -37 -62 -148 -66 -186 -7
-35 53 -14 136 41 160 39 17 58 17 100 0z m888 -26 c47 -52 33 -136 -28 -165
-44 -20 -73 -19 -113 5 -38 24 -56 62 -48 108 6 41 22 61 61 79 44 20 95 9
128 -27z m403 30 c25 -10 26 -12 10 -29 -11 -12 -25 -16 -47 -13 -26 4 -30 1
-27 -14 1 -10 16 -21 33 -26 58 -15 73 -72 29 -107 -30 -24 -61 -26 -99 -9
-46 21 -22 48 36 41 54 -8 52 18 -3 43 -24 10 -44 27 -46 37 -12 65 45 103
114 77z m-2536 -100 c0 -93 -1 -100 -20 -100 -19 0 -20 7 -20 100 0 93 1 100
20 100 19 0 20 -7 20 -100z m149 33 l41 -68 0 68 c0 65 1 67 25 67 25 0 25 0
25 -100 l0 -100 -32 0 c-30 0 -37 7 -75 68 l-42 67 -1 -67 c0 -66 -1 -68 -25
-68 -25 0 -25 0 -25 100 l0 100 34 0 c31 0 37 -6 75 -67z m271 47 c0 -17 -7
-20 -45 -20 -38 0 -45 -3 -45 -20 0 -17 7 -20 40 -20 33 0 40 -3 40 -20 0 -17
-7 -20 -40 -20 -40 0 -40 0 -40 -40 0 -36 -2 -40 -25 -40 -25 0 -25 0 -25 100
l0 100 70 0 c63 0 70 -2 70 -20z m165 6 c25 -18 25 -74 -1 -93 -18 -13 -18
-14 0 -48 11 -19 22 -35 26 -35 4 0 25 42 47 93 34 77 44 92 63 92 19 0 29
-16 66 -97 l43 -98 -29 0 c-20 0 -31 6 -35 20 -9 29 -81 29 -90 0 -5 -17 -15
-20 -64 -20 -58 0 -58 0 -76 40 -10 22 -22 40 -27 40 -4 0 -8 -18 -8 -40 0
-36 -2 -40 -25 -40 -25 0 -25 0 -25 100 l0 100 58 0 c33 0 66 -6 77 -14z m795
-66 l0 -80 45 0 c38 0 45 -3 45 -20 0 -18 -7 -20 -65 -20 l-65 0 0 100 c0 93
1 100 20 100 18 0 20 -7 20 -80z m162 3 c3 -74 4 -78 27 -81 36 -6 51 22 51
95 0 56 2 63 20 63 18 0 20 -7 20 -78 0 -90 -14 -118 -64 -127 -38 -8 -90 14
-100 40 -3 9 -6 50 -6 91 0 72 1 74 25 74 23 0 24 -3 27 -77z m308 57 c0 -16
-7 -20 -30 -20 l-30 0 0 -80 c0 -79 0 -80 -25 -80 -25 0 -25 1 -25 80 l0 80
-30 0 c-23 0 -30 4 -30 20 0 18 7 20 85 20 78 0 85 -2 85 -20z m60 -80 c0 -93
-1 -100 -20 -100 -19 0 -20 7 -20 100 0 93 1 100 20 100 19 0 20 -7 20 -100z
m387 33 l43 -68 0 68 c0 65 1 67 25 67 25 0 25 0 25 -100 l0 -100 -34 0 c-31
0 -37 5 -73 66 l-38 66 -3 -66 c-3 -63 -4 -66 -27 -66 -25 0 -25 0 -25 100 l0
100 33 0 c29 0 36 -7 74 -67z m-1387 -63 c0 -17 -7 -20 -40 -20 -33 0 -40 3
-40 20 0 17 7 20 40 20 33 0 40 -3 40 -20z"/>
<path d="M872 923 c-7 -3 -19 -18 -27 -34 l-16 -29 90 0 c85 0 89 1 84 20 -11
40 -81 63 -131 43z"/>
<path d="M2297 899 c-23 -13 -47 -62 -47 -94 0 -34 25 -82 49 -95 11 -5 38
-10 61 -10 61 0 100 41 100 105 0 38 -5 52 -29 76 -24 23 -38 29 -73 29 -24 0
-51 -5 -61 -11z"/>
<path d="M1382 348 c-17 -17 -15 -83 2 -97 26 -21 79 -9 96 22 13 24 13 30 0
55 -12 20 -25 28 -50 30 -19 2 -41 -3 -48 -10z"/>
<path d="M2236 338 c-34 -48 -7 -98 52 -98 34 0 52 22 52 64 0 54 -74 78 -104
34z"/>
<path d="M724 340 c0 -15 7 -20 28 -20 21 0 28 5 28 20 0 15 -7 20 -28 20 -21
0 -28 -5 -28 -20z"/>
<path d="M940 323 c0 -6 -3 -18 -6 -27 -4 -12 0 -16 15 -16 12 0 21 4 21 8 0
13 -29 48 -30 35z"/>
</g>
</svg>
